<?xml version="1.0" encoding="utf-8"?>
<!-- Generator: Adobe Illustrator 15.1.0, SVG Export Plug-In  -->
<!DOCTYPE svg PUBLIC "-//W3C//DTD SVG 1.1//EN" "http://www.w3.org/Graphics/SVG/1.1/DTD/svg11.dtd" [
	<!ENTITY ns_flows "http://ns.adobe.com/Flows/1.0/">
]>
<svg version="1.1"
	 xmlns="http://www.w3.org/2000/svg" xmlns:xlink="http://www.w3.org/1999/xlink" xmlns:a="http://ns.adobe.com/AdobeSVGViewerExtensions/3.0/"
	 x="0px" y="0px" width="200px" height="300px" viewBox="-6 -293 200 300"
	 overflow="visible" enable-background="new -6 -293 200 300" xml:space="preserve">
<defs>
</defs>
<g transform="rotate(-90)">
<path fill="#F49217" d="M107.187,131.211c0-6.365-5.133-11.498-11.499-11.498c-6.365,0-11.499,5.133-11.499,11.498
	c0,6.366,5.134,11.5,11.499,11.5C102.053,142.711,107.187,137.577,107.187,131.211z M89.322,131.211c0-3.49,2.875-6.16,6.16-6.16
	c3.491,0,6.16,2.875,6.16,6.16c0,3.491-2.875,6.16-6.16,6.16C92.197,137.371,89.322,134.702,89.322,131.211z"/>
<path fill="#F49217" d="M91.17,95.482c-1.027-1.026-1.643-2.669-1.643-4.312c0-3.491,2.669-6.16,6.16-6.16s6.16,2.875,6.16,6.16
	c0,1.643-0.616,3.08-1.643,4.312h6.16c0.411-1.232,0.821-2.669,0.821-4.312c0-6.365-5.133-11.499-11.499-11.499
	c-6.365,0-11.499,5.134-11.499,11.499c0,1.437,0.206,2.875,0.822,4.312H91.17z"/>
<path fill="#F49217" d="M107.187,156.263c0-6.365-5.133-11.499-11.499-11.499c-6.365,0-11.499,5.134-11.499,11.499
	c0,6.366,5.134,11.499,11.499,11.499C102.053,167.762,107.187,162.629,107.187,156.263z M89.322,156.263
	c0-3.491,2.875-6.16,6.16-6.16c3.491,0,6.16,2.875,6.16,6.16c0,3.491-2.875,6.16-6.16,6.16
	C92.197,162.423,89.322,159.549,89.322,156.263z"/>
<path fill="#F49217" d="M195.482,55.031h-24.024V1.643h24.024c14.579,0,26.489,11.91,26.489,26.489v0.821l-0.206,0.411
	C221.766,43.737,209.856,55.031,195.482,55.031z M184.394,42.3h11.089c7.598,0,13.758-6.16,13.758-13.758v-0.821V27.31
	c-0.411-7.187-6.366-13.142-13.758-13.142h-11.294V42.3H184.394z"/>
<path fill="#F49217" d="M56.878,31.417c-1.232,14.374-13.552,25.667-28.336,25.667C12.731,57.084,0,44.354,0,28.542
	C0,12.731,12.731,0,28.542,0c10.062,0,19.507,5.339,24.641,14.168l-11.088,6.571c-2.875-4.723-8.008-7.803-13.552-7.803
	c-8.625,0-15.811,6.981-15.811,15.811c0,8.624,6.981,15.811,15.811,15.811c5.339,0,10.267-2.875,13.142-6.981H28.747V24.846H57.29
	C57.29,24.436,57.29,28.131,56.878,31.417z"/>
<rect x="114.784" y="1.643" fill="#F49217" width="12.731" height="53.594"/>
<polygon fill="#F49217" points="167.351,55.236 135.934,55.236 135.934,1.643 148.665,1.643 148.665,42.3 167.351,42.3 "/>
<polygon fill="#F49217" points="253.183,117.248 221.561,117.248 221.561,64.066 234.497,64.066 234.497,104.518 253.183,104.518
	"/>
<polygon fill="#F49217" points="288.706,117.248 257.084,117.248 257.084,64.066 269.815,64.066 269.815,104.518 288.706,104.518
	"/>
<polygon fill="#F49217" points="147.433,64.066 147.433,83.368 127.515,83.368 127.515,64.066 114.784,64.066 114.784,117.248
	127.515,117.248 127.515,96.099 147.433,96.099 147.433,117.248 160.37,117.248 160.37,64.066 "/>
<path fill="#F49217" d="M62.217,34.908V1.438h12.731v33.47c0,5.133,4.107,9.24,9.24,9.24h1.027c4.723-0.411,8.625-4.312,8.625-9.24
	V1.438h12.731v33.47c0,12.115-9.856,21.971-21.971,21.971h-0.616h-0.411C71.663,56.468,62.217,46.817,62.217,34.908z"/>
<path fill="#F49217" d="M203.901,117.043l-3.285-9.24h-18.275l-3.49,9.24h-13.964l19.302-53.183h14.579l19.097,53.183H203.901z
	 M191.581,80.288l-5.545,17.042h10.884L191.581,80.288z"/>
<path fill="#F49217" d="M84.188,70.021c0-2.669,1.027-5.133,2.259-7.392l4.518,2.259c-1.027,1.232-2.053,3.285-2.053,4.723
	s0.821,2.464,2.053,2.464c1.027,0,1.848-0.822,2.669-3.08c0.821-2.464,1.848-3.902,3.08-4.723c0.821-0.616,2.053-0.821,3.491-0.821
	c4.107,0,6.981,3.08,6.981,7.392c0,2.054-0.616,4.312-1.643,6.16l-4.518-2.259c1.027-1.026,1.438-2.258,1.438-3.491
	c0-1.232-0.821-2.053-1.848-2.053c-0.411,0-0.821,0.206-1.027,0.411c-0.411,0.411-0.821,1.232-1.643,3.286
	c-1.232,3.285-3.285,4.928-6.365,4.928C87.269,78.029,84.188,74.743,84.188,70.021z"/>
<polygon fill="#F49217" points="90.144,175.564 106.571,175.564 106.571,170.227 84.805,170.227 84.805,181.93 89.527,181.93
	90.144,181.93 "/>
<polygon fill="#F49217" points="106.571,111.91 98.562,111.91 98.562,104.107 106.571,104.107 106.571,98.768 84.805,98.768
	84.805,104.107 93.224,104.107 93.224,111.91 84.805,111.91 84.805,117.248 106.571,117.248 "/>
</g>
</svg>
